PathFileType	4	(X/Y/Z)	pose_F01_0-75.trc
DataRate	CameraRate	NumFrames	NumMarkers	Units	OrigDataRate	OrigDataStartFrame	OrigNumFrames
30	30	7	21	m	30	0	75
Frame#	Time	CHip			RHip			RKnee			RAnkle			RBigToe			RSmallToe			RHeel			LHip			LKnee			LAnkle			LBigToe			LSmallToe			LHeel			Neck			Nose			RShoulder			RElbow			RWrist			LShoulder			LElbow			LWrist			
		X1	Y1	Z1	X2	Y2	Z2	X3	Y3	Z3	X4	Y4	Z4	X5	Y5	Z5	X6	Y6	Z6	X7	Y7	Z7	X8	Y8	Z8	X9	Y9	Z9	X10	Y10	Z10	X11	Y11	Z11	X12	Y12	Z12	X13	Y13	Z13	X14	Y14	Z14	X15	Y15	Z15	X16	Y16	Z16	X17	Y17	Z17	X18	Y18	Z18	X19	Y19	Z19	X20	Y20	Z20	X21	Y21	Z21	
0	0.0	-0.2059909123086209	1.8907101097438406	-0.5845099544759632	-0.21551117198470082	1.8852117244863422	-0.5134315568789488	-0.22632398910325516	1.7249767658367445	-0.4737517112220872	-0.2313078680329059	1.5609607139407424	-0.4445005187498852	-0.1960449646929071	1.5099056725369162	-0.47742338478678886	-0.2002420713928491	1.510547908488327	-0.4361833904697765	-0.24452880845977168	1.5536639134881305	-0.43920546517771997	-0.19602738824717109	1.8944412940670534	-0.6584358800853861	-0.20711539878115737	1.7229323718536838	-0.6256180338560252	-0.22560580594123217	1.5701468233151046	-0.6179642136859381	-0.18078758765328978	1.5370565048432434	-0.6742838715749748	-0.18878087841937527	1.543665249005305	-0.6952521597258076	-0.22985241917489305	1.560329615758655	-0.5999892276621221	-0.2152045234222039	2.061202485207176	-0.5896748489652625	-0.1817023883971724	2.1294281564350372	-0.6342513080878248	-0.22650734083312257	2.0579259292663137	-0.48562689608561316	-0.2307922903957893	1.9631974172177908	-0.4565687501750011	-0.21924872787491675	1.8829799142509849	-0.4349764728797634	-0.20036435779056205	2.063038488816026	-0.6816598123593749	-0.19072660289539556	1.9708672326995642	-0.7101008754332042	4.071214715525714	2.1880209818475995	-5.105148508938676
1	0.03333333333333333	-0.20671600431820672	1.8871157838416346	-0.584224895803925	-0.21606205891043434	1.8831319589060387	-0.5133046932066588	-0.22695942770474592	1.7245155020774456	-0.47294648944635004	-0.23107661074706035	1.5595833777322645	-0.444741139121731	-0.19513089619635157	1.510016093764728	-0.4740253580907219	-0.20225874651740078	1.5108833719393184	-0.43389809954597713	-0.24428799111985217	1.55257680930004	-0.4392086201098071	-0.1966955651964569	1.8899027289609793	-0.6579072306130965	-0.20836761979099386	1.7230232168176076	-0.6282845991159592	-0.2232158103414482	1.5710306277603334	-0.6159671848577623	-0.18147777090119177	1.5360062201870668	-0.6778585025114022	-0.18857975485297276	1.5426178038216245	-0.6956433109899259	-0.22955037016207722	1.5612769823126944	-0.5958182001713878	-0.21516160681392624	2.0612412410494736	-0.5897004807191254	-0.18167751076166325	2.1305058467586706	-0.6340244346632211	-0.22648988536605866	2.058007957976882	-0.4856236534683052	-0.23080637983740113	1.9646388344284176	-0.45699502690004007	-0.22127484006268097	1.881942839697411	-0.4326002644029926	-0.2003456996199853	2.064261567275004	-0.6821539384217258	-0.19097145597143309	1.9704856546918403	-0.7098227780701486	3.0060493770619074	2.1121844777823435	-4.01046708068217
2	0.06666666666666667	-0.20744109632779253	1.8835214579394286	-0.5839398371318868	-0.21661294583616786	1.8810521933257351	-0.5131778295343689	-0.22759486630623668	1.7240542383181467	-0.4721412676706129	-0.2308453534612148	1.5582060415237866	-0.4449817594935768	-0.19421682769979604	1.5101265149925398	-0.4706273313946549	-0.20427542164195245	1.5112188353903098	-0.43161280862217777	-0.24404717377993265	1.5514897051119496	-0.43921177504189424	-0.1973637421457427	1.8853641638549052	-0.6573785811408069	-0.20961984080083035	1.7231140617815315	-0.6309511643758933	-0.2208258147416642	1.5719144322055623	-0.6139701560295864	-0.18216795414909376	1.5349559355308902	-0.6814331334478296	-0.18837863128657026	1.541570358637944	-0.6960344622540443	-0.22924832114926139	1.5622243488667338	-0.5916471726806534	-0.21511869020564858	2.061279996891771	-0.5897261124729883	-0.1816526331261541	2.131583537082304	-0.6337975612386174	-0.22647242989899474	2.0580899866874507	-0.4856204108509973	-0.23082046927901295	1.9660802516390443	-0.45742130362507905	-0.2233009522504452	1.880905765143837	-0.4302240559262218	-0.20032704144940855	2.065484645733982	-0.6826480644840767	-0.1912163090474706	1.9701040766841165	-0.709544680707093	1.9408840385981017	2.036347973717088	-2.9157856524256642
3	0.1	-0.20932144903332361	1.882019983065132	-0.5814974340029018	-0.21879888132461436	1.8797270685373977	-0.5107595606057498	-0.22742100407929466	1.722446744643512	-0.4721661269866711	-0.2311558692907708	1.5571352959927587	-0.4444650712014834	-0.19519547059109926	1.5096880451969785	-0.4743315147691049	-0.2054869394234278	1.5119520997770926	-0.43508908811333424	-0.2444335324689009	1.5507467838602602	-0.43865366006915835	-0.1986148274210546	1.8837505483267747	-0.6518277898393445	-0.2089207580586615	1.724396154584461	-0.627800939763381	-0.22450017323472474	1.5743780183598426	-0.6107001481937159	-0.1845393503245111	1.5359838750423425	-0.678895569576072	-0.18836678166067194	1.541162875360024	-0.6959318859765631	-0.22881502607770013	1.562588682981057	-0.5921517754717444	-0.2151358368846894	2.0612873643000564	-0.5898119804923829	-0.18166673187667198	2.1315759976497515	-0.633771165609968	-0.22732232977928019	2.0592460412807245	-0.48853256661546407	-0.23082197699115492	1.9647161981612797	-0.4569398261476745	-0.2233224246081539	1.8781535408346226	-0.42979785506634754	-0.20123644293319135	2.064443966735614	-0.6857282838591972	-0.19146116212350814	1.9697224986763926	-0.7092665833440374	0.8757187001342959	1.9605114696518322	-1.8211042241691584
4	0.13333333333333333	-0.2091802602183304	1.8832521284420276	-0.5817481286168045	-0.21863297393875267	1.8808686933786962	-0.5110295616804746	-0.22720155548924867	1.7233721967124855	-0.472523981591524	-0.23112296940787086	1.557058883137487	-0.4444872985437746	-0.19386711417068303	1.508918566909047	-0.47111450201013627	-0.2023176502787449	1.5114603888163876	-0.4338384323251409	-0.24625672896928197	1.549730018160368	-0.43691378235986034	-0.20121760664082952	1.886114782488063	-0.6529498350966131	-0.209521204263807	1.7225231897615585	-0.6309974676996806	-0.2228927232556153	1.572179368567717	-0.6164254313706935	-0.18208890947926498	1.5347501296603643	-0.6810179612706697	-0.1880194084790398	1.5398766834756037	-0.6959942999158553	-0.2283009600785638	1.5599638681750088	-0.5926100532778015	-0.21519094205674297	2.0612382010584787	-0.589780432284728	-0.18166796568411964	2.1315575894299625	-0.6337720315520102	-0.22650971147729854	2.0579872652434563	-0.485603116388028	-0.22987970829415139	1.964607251830134	-0.45374142343877355	-0.22228284179986024	1.8833135606901954	-0.4274090131049618	-0.20128849639147303	2.063232769630698	-0.685278421003783	-0.19170601519954567	1.9693409206686687	-0.7089884859809817	-0.18944663832950986	1.8846749655865764	-0.7264227959126525
5	0.16666666666666666	-0.20937943455151758	1.8819591541733107	-0.581494634124609	-0.22284331034422766	1.8795725866205295	-0.5063240188753959	-0.22745124297065766	1.7223327648167315	-0.47210970218801257	-0.2329436497944237	1.5593758453310653	-0.44269248759812296	-0.19561526817944885	1.5117417061872949	-0.474199453951929	-0.2039318658074333	1.5137405398668293	-0.4368856226660055	-0.24415273369568713	1.5519975491765667	-0.4391064954245139	-0.19944676838038786	1.8836446277122985	-0.6548391579812409	-0.20979050024190157	1.7243694288929519	-0.630910861657845	-0.22399258393650862	1.5744158137648738	-0.6116558858438227	-0.18300038914291228	1.5330938147031294	-0.6760178254603036	-0.18776221153097497	1.5413140593686345	-0.6964844930880955	-0.22856532354199255	1.561262540360462	-0.5925377430459334	-0.21515342066348547	2.0612718095963634	-0.589742587089846	-0.1817462190306966	2.130482032264417	-0.633983072408765	-0.22738338264796176	2.0592214490442147	-0.4884915884306052	-0.23008006042220094	1.9651239486908496	-0.4541939929401794	-0.22242148755726301	1.882083715099705	-0.4273277171463602	-0.20121666027194582	2.0632028224405055	-0.6852182340895175	-0.1919508682755832	1.9689593426609449	-0.7087103886179261	-1.2546119767933157	1.8088384615213207	0.3682586323438533
6	0.2	-0.20935589912350017	1.8820016988673847	-0.5814686760290727	-0.22083589237461743	1.8796998541059822	-0.5084953128569044	-0.22764313100540765	1.7239608328266414	-0.4720582221228508	-0.2313801081081139	1.5585337518789806	-0.4441804386482528	-0.19388768697241537	1.508727656112113	-0.47112435387870266	-0.20215497130124943	1.5106203008813754	-0.43384503894928295	-0.24432184068786017	1.5527837333299312	-0.4393153057667847	-0.20136912743818108	1.884767402301908	-0.6527192523122353	-0.20979646227238102	1.7243295935695038	-0.6308804665538945	-0.22319615712387758	1.573493074087883	-0.6113970997234376	-0.18371051434914504	1.5362385635853069	-0.6757061140151546	-0.18872437807925144	1.5429517711028826	-0.6955015029693935	-0.2282420670631115	1.56485169566346	-0.5887240474920987	-0.21518516456339265	2.0612405746390645	-0.5897694084004944	-0.18174723187655129	2.13048122503207	-0.6339963336536596	-0.2274786056870224	2.058117344132149	-0.4886164903782703	-0.23091900128030507	1.9662626754595514	-0.4572725939605272	-0.2224776102177085	1.8822085083248667	-0.42726130676154106	-0.20124059361641058	2.0631632162255036	-0.6852108829577046	-0.19219572135162072	1.968577764653221	-0.7084322912548705	-1.121770962535357	1.8179307594966152	0.23176576741683552
